<svg width="569" height="338" viewBox="0 0 569 338" fill="none" xmlns="http://www.w3.org/2000/svg">
<g filter="url(#filter0_d_1639_9)">
<path d="M162.192 148.512C163.632 145.344 165.36 141.264 167.376 136.272C169.392 131.28 171.504 125.904 173.712 120.144C175.92 114.288 178.176 108.336 180.48 102.288C182.784 96.144 184.944 90.336 186.96 84.864C188.976 79.392 190.704 74.496 192.144 70.176C193.68 65.856 194.784 62.544 195.456 60.24C189.408 62.736 184.224 66.528 179.904 71.616C175.584 76.704 172.32 83.088 170.112 90.768C167.904 90 165.888 88.656 164.064 86.736C162.24 84.72 161.04 82.224 160.464 79.248C161.424 74.832 163.2 70.8 165.792 67.152C168.48 63.504 171.84 60.384 175.872 57.792C179.904 55.2 184.56 53.232 189.84 51.888C195.12 50.448 200.784 49.728 206.832 49.728C214.512 49.728 221.568 50.88 228 53.184C234.432 55.392 239.952 58.512 244.56 62.544C249.168 66.576 252.768 71.424 255.36 77.088C257.952 82.752 259.248 89.04 259.248 95.952C259.248 105.36 257.52 114.336 254.064 122.88C250.608 131.424 245.904 138.96 239.952 145.488C234.096 152.016 227.28 157.2 219.504 161.04C211.728 164.976 203.568 166.944 195.024 166.944C187.152 166.944 180.384 165.36 174.72 162.192C169.152 159.12 164.976 154.56 162.192 148.512ZM213.024 56.928C208.224 56.928 203.664 57.6 199.344 58.944C203.568 60.48 207.072 62.112 209.856 63.84C212.64 65.472 214.56 66.768 215.616 67.728C214.848 68.784 213.696 70.656 212.16 73.344C210.72 76.032 208.992 79.296 206.976 83.136C205.056 86.976 202.992 91.2 200.784 95.808C198.576 100.32 196.416 104.976 194.304 109.776C188.832 121.968 184.848 131.568 182.352 138.576C179.952 145.584 178.752 150.432 178.752 153.12C180.096 153.6 181.728 153.936 183.648 154.128C185.568 154.32 187.632 154.416 189.84 154.416C197.616 154.416 204.96 152.64 211.872 149.088C218.88 145.44 224.976 140.592 230.16 134.544C235.44 128.496 239.568 121.488 242.544 113.52C245.616 105.456 247.152 97.008 247.152 88.176C247.152 78.288 244.08 70.608 237.936 65.136C231.792 59.664 223.488 56.928 213.024 56.928ZM324.094 94.656C327.262 94.656 329.71 95.52 331.438 97.248C333.262 98.976 334.174 101.376 334.174 104.448C334.174 105.216 334.078 106.032 333.886 106.896C333.79 107.664 333.646 108.336 333.454 108.912C332.206 108.72 330.814 108.576 329.278 108.48C327.742 108.288 325.918 108.192 323.806 108.192C319.678 108.192 315.502 108.576 311.278 109.344C307.054 110.016 303.022 110.592 299.182 111.072C296.974 116.16 294.958 121.104 293.134 125.904C291.31 130.608 289.726 134.928 288.382 138.864C287.134 142.8 286.126 146.208 285.358 149.088C284.686 151.968 284.302 154.128 284.206 155.568C291.982 153.936 299.806 152.544 307.678 151.392C315.646 150.24 323.998 149.376 332.734 148.8C333.79 150.432 334.654 152.208 335.326 154.128C336.094 156.048 336.478 158.112 336.478 160.32C336.478 160.896 336.478 161.52 336.478 162.192C336.478 162.864 336.382 163.536 336.19 164.208C333.502 164.112 330.67 164.016 327.694 163.92C324.718 163.92 320.83 163.92 316.03 163.92C312.862 163.92 309.838 163.968 306.958 164.064C304.174 164.256 301.342 164.496 298.462 164.784C295.582 165.072 292.51 165.456 289.246 165.936C286.078 166.416 282.478 166.992 278.446 167.664C274.03 165.936 269.758 161.712 265.63 154.992C267.262 151.536 269.518 146.304 272.398 139.296C275.374 132.192 279.118 122.736 283.63 110.928C279.31 109.584 276.478 107.184 275.134 103.728C275.614 103.248 277.006 102.672 279.31 102C281.614 101.232 284.446 100.464 287.806 99.696C289.246 95.952 290.446 92.688 291.406 89.904C292.462 87.12 293.374 84.528 294.142 82.128C294.91 79.632 295.582 77.232 296.158 74.928C296.83 72.528 297.454 69.936 298.03 67.152C294.67 66.96 292.03 66.048 290.11 64.416C288.19 62.688 287.23 60.48 287.23 57.792C287.23 57.024 287.326 56.112 287.518 55.056C287.806 54 288.094 53.088 288.382 52.32C290.302 52.608 292.126 52.8 293.854 52.896C295.678 52.992 298.03 53.04 300.91 53.04C306.958 53.04 312.622 52.896 317.902 52.608C323.182 52.224 327.934 51.84 332.158 51.456C336.478 51.072 340.174 50.736 343.246 50.448C346.318 50.064 348.67 49.872 350.302 49.872C352.51 49.872 354.478 51.024 356.206 53.328C357.934 55.632 359.23 58.896 360.094 63.12C357.118 62.832 354.67 62.64 352.75 62.544C350.926 62.448 349.294 62.4 347.854 62.4C342.574 62.4 337.726 62.688 333.31 63.264C328.99 63.744 324.814 64.272 320.782 64.848C320.206 65.712 319.534 66.816 318.766 68.16C318.094 69.504 317.182 71.376 316.03 73.776C314.878 76.176 313.438 79.2 311.71 82.848C310.078 86.496 308.062 91.056 305.662 96.528C309.31 95.952 312.718 95.52 315.886 95.232C319.15 94.848 321.886 94.656 324.094 94.656ZM398.164 165.216C395.956 166.368 393.604 166.944 391.108 166.944C388.036 166.56 385.06 165.792 382.18 164.64C379.396 163.488 377.332 162.096 375.988 160.464C375.22 155.76 374.596 151.44 374.116 147.504C373.636 143.568 373.252 139.872 372.964 136.416C372.676 132.864 372.484 129.504 372.388 126.336C372.292 123.072 372.244 119.808 372.244 116.544C372.244 112.224 372.292 107.664 372.388 102.864C372.484 98.064 372.58 92.976 372.676 87.6C372.868 82.128 373.012 76.32 373.108 70.176C373.204 63.936 373.252 57.168 373.252 49.872C374.5 49.872 376.372 50.256 378.868 51.024C381.364 51.696 383.812 52.512 386.212 53.472C388.708 54.432 390.916 55.44 392.836 56.496C394.756 57.456 395.812 58.272 396.004 58.944C395.044 61.632 394.18 65.136 393.412 69.456C392.74 73.776 392.164 78.576 391.684 83.856C391.3 89.136 391.012 94.704 390.82 100.56C390.628 106.416 390.532 112.224 390.532 117.984C390.532 122.304 390.58 126.192 390.676 129.648C390.772 133.008 390.868 136.08 390.964 138.864C391.156 141.552 391.396 144.096 391.684 146.496C391.972 148.8 392.308 151.104 392.692 153.408C395.38 145.248 398.308 137.088 401.476 128.928C404.74 120.768 408.052 112.944 411.412 105.456C414.868 97.872 418.276 90.816 421.636 84.288C424.996 77.76 428.164 72.096 431.14 67.296C434.212 62.4 436.948 58.56 439.348 55.776C441.748 52.896 443.716 51.36 445.252 51.168C446.308 51.36 447.412 51.792 448.564 52.464C449.812 53.04 450.964 53.76 452.02 54.624C453.076 55.488 454.036 56.448 454.9 57.504C455.764 58.56 456.436 59.616 456.916 60.672C453.364 61.92 449.524 64.848 445.396 69.456C441.364 74.064 437.284 79.632 433.156 86.16C429.028 92.592 424.996 99.648 421.06 107.328C417.22 114.912 413.716 122.352 410.548 129.648C407.476 136.944 404.836 143.76 402.628 150.096C400.42 156.432 398.932 161.472 398.164 165.216Z" fill="#8ECAE6"/>
<path d="M108.432 187.944C108.72 189.576 108.912 190.728 109.008 191.4C109.2 191.976 109.296 192.792 109.296 193.848C109.296 197.016 108.576 199.992 107.136 202.776C105.792 205.464 103.92 207.384 101.52 208.536C99.6 205.944 97.248 203.736 94.464 201.912C91.68 199.992 88.608 198.456 85.248 197.304C81.984 196.056 78.576 195.144 75.024 194.568C71.472 193.992 68.016 193.704 64.656 193.704C61.296 193.704 58.128 193.992 55.152 194.568C52.272 195.048 49.68 195.768 47.376 196.728C45.168 197.592 43.392 198.696 42.048 200.04C40.8 201.384 40.176 202.92 40.176 204.648C40.464 206.76 41.76 208.92 44.064 211.128C46.368 213.24 49.2 215.352 52.56 217.464C55.92 219.48 59.616 221.496 63.648 223.512C67.776 225.528 71.808 227.448 75.744 229.272C80.64 231.576 84.864 233.736 88.416 235.752C91.968 237.672 94.896 239.832 97.2 242.232C99.504 244.536 101.232 247.176 102.384 250.152C103.536 253.128 104.112 256.728 104.112 260.952C104.112 265.848 103.296 270.456 101.664 274.776C100.032 279 97.632 282.696 94.464 285.864C91.392 289.032 87.648 291.48 83.232 293.208C78.816 295.032 73.872 295.944 68.4 295.944C63.024 295.944 57.216 295.128 50.976 293.496C44.736 291.864 38.88 289.608 33.408 286.728C28.032 283.944 23.52 280.728 19.872 277.08C16.32 273.336 14.544 269.4 14.544 265.272C14.544 263.352 15.072 260.904 16.128 257.928C17.28 254.952 19.296 251.832 22.176 248.568C22.464 251.448 24 254.856 26.784 258.792C29.664 262.728 33.936 266.376 39.6 269.736C44.88 272.808 50.304 275.064 55.872 276.504C61.536 277.848 66.816 278.52 71.712 278.52C77.088 278.52 81.456 277.848 84.816 276.504C88.176 275.16 90.816 273.576 92.736 271.752C94.656 269.832 96 267.912 96.768 265.992C97.536 264.072 97.968 262.536 98.064 261.384C97.968 259.464 97.056 257.64 95.328 255.912C93.696 254.088 91.44 252.36 88.56 250.728C85.776 249 82.512 247.272 78.768 245.544C75.024 243.816 71.136 242.088 67.104 240.36C61.056 237.672 55.824 235.176 51.408 232.872C47.088 230.472 43.488 228.072 40.608 225.672C37.824 223.176 35.76 220.584 34.416 217.896C33.168 215.208 32.544 212.136 32.544 208.68C32.544 203.304 34.176 198.216 37.44 193.416C40.704 188.616 45.408 184.968 51.552 182.472C54.624 181.128 57.888 180.168 61.344 179.592C64.896 179.016 68.352 178.728 71.712 178.728C78.048 178.728 84.24 179.592 90.288 181.32C96.336 183.048 102.384 185.256 108.432 187.944ZM120.854 256.776C120.854 250.056 121.622 243.48 123.158 237.048C124.79 230.52 127.046 224.376 129.926 218.616C132.806 212.76 136.214 207.432 140.15 202.632C144.182 197.736 148.55 193.512 153.254 189.96C158.054 186.408 163.142 183.672 168.518 181.752C173.894 179.736 179.414 178.728 185.078 178.728C191.702 178.728 196.838 180.12 200.486 182.904C204.23 185.688 206.102 189.576 206.102 194.568C206.102 196.488 205.814 198.456 205.238 200.472C204.758 202.488 203.99 204.504 202.934 206.52C201.974 208.44 200.822 210.312 199.478 212.136C198.134 213.96 196.646 215.544 195.014 216.888C192.518 216.504 190.358 215.4 188.534 213.576C186.71 211.656 185.558 209.448 185.078 206.952C188.438 204.168 191.078 201.288 192.998 198.312C195.014 195.24 196.022 192.456 196.022 189.96C196.022 185.736 193.382 183.624 188.102 183.624C185.894 183.624 183.59 184.104 181.19 185.064C178.886 185.928 176.534 187.176 174.134 188.808C171.734 190.44 169.382 192.408 167.078 194.712C164.87 197.016 162.806 199.56 160.886 202.344C147.542 221.544 140.87 241.176 140.87 261.24C140.87 268.344 141.974 274.056 144.182 278.376C146.39 282.696 149.318 285.24 152.966 286.008C157.094 285.048 162.326 282.408 168.662 278.088C174.998 273.768 181.91 268.152 189.398 261.24C190.358 262.2 190.934 263.208 191.126 264.264C188.342 267.912 185.462 271.416 182.486 274.776C179.51 278.136 176.534 281.208 173.558 283.992C170.678 286.776 167.798 289.224 164.918 291.336C162.134 293.448 159.542 295.08 157.142 296.232C145.238 296.04 136.214 292.632 130.07 286.008C123.926 279.384 120.854 269.64 120.854 256.776ZM258.017 276.648C258.017 272.616 258.689 267.432 260.032 261.096C261.377 254.76 263.153 247.992 265.361 240.792C259.025 241.272 252.641 241.896 246.209 242.664C239.873 243.432 234.353 243.864 229.648 243.96C225.329 254.04 221.873 263.352 219.281 271.896C216.785 280.344 214.817 288.6 213.377 296.664C209.729 295.8 206.705 294.264 204.305 292.056C201.905 289.944 199.697 287.256 197.681 283.992C198.449 282.456 199.313 280.488 200.273 278.088C201.329 275.688 202.529 272.808 203.873 269.448C205.313 265.992 206.897 262.008 208.625 257.496C210.449 252.888 212.513 247.56 214.817 241.512C211.649 240.168 209.537 238.296 208.48 235.896C208.961 235.512 210.017 235.128 211.649 234.744C213.377 234.264 215.489 233.784 217.985 233.304L219.857 228.696C221.873 223.512 223.505 219.144 224.753 215.592C226.097 212.04 227.201 208.584 228.065 205.224C229.025 201.768 229.889 197.976 230.657 193.848C231.521 189.72 232.529 184.488 233.681 178.152C237.713 178.92 241.361 180.696 244.625 183.48C247.985 186.264 250.865 189.624 253.265 193.56C252.401 194.712 251.345 196.44 250.097 198.744C248.849 201.048 247.457 203.832 245.921 207.096C244.481 210.264 242.897 213.864 241.169 217.896C239.441 221.832 237.569 226.008 235.553 230.424C241.505 229.656 247.505 228.936 253.553 228.264C259.697 227.592 265.121 227.112 269.825 226.824C271.553 221.832 273.329 216.984 275.153 212.28C277.073 207.48 278.945 203.112 280.769 199.176C282.593 195.24 284.321 191.784 285.953 188.808C287.681 185.832 289.217 183.624 290.561 182.184C291.521 182.28 292.769 182.664 294.305 183.336C295.937 183.912 297.569 184.632 299.201 185.496C300.833 186.36 302.321 187.32 303.665 188.376C305.009 189.336 305.921 190.248 306.401 191.112C304.673 192.744 302.945 194.856 301.217 197.448C299.489 200.04 297.761 203.016 296.033 206.376C294.401 209.736 292.769 213.384 291.137 217.32C289.505 221.256 287.969 225.336 286.529 229.56C288.449 231.288 289.409 233.448 289.409 236.04C289.409 237.864 289.025 239.544 288.257 241.08C287.393 240.888 286.529 240.792 285.665 240.792C284.801 240.696 283.889 240.6 282.929 240.504C281.297 245.688 279.809 250.824 278.465 255.912C277.121 261 275.969 265.848 275.009 270.456C274.145 275.064 273.425 279.288 272.849 283.128C272.369 286.968 272.129 290.184 272.129 292.776C272.129 293.736 272.129 294.504 272.129 295.08C272.225 295.656 272.321 296.136 272.417 296.52C270.305 296.424 268.769 296.04 267.809 295.368C266.849 294.792 266.129 294.12 265.649 293.352C265.169 292.68 264.737 291.96 264.353 291.192C263.969 290.52 263.345 289.992 262.481 289.608C261.809 289.32 261.185 288.648 260.609 287.592C260.033 286.536 259.553 285.336 259.169 283.992C258.785 282.648 258.497 281.304 258.305 279.96C258.113 278.616 258.017 277.512 258.017 276.648ZM365.412 180.168C367.236 180.936 369.108 181.944 371.028 183.192C372.948 184.344 374.724 185.544 376.356 186.792C377.988 188.04 379.332 189.288 380.388 190.536C381.54 191.688 382.164 192.648 382.26 193.416C380.628 193.032 378.996 192.792 377.364 192.696C375.732 192.504 374.244 192.408 372.9 192.408C368.58 192.408 364.26 193.464 359.94 195.576C355.716 197.688 351.684 200.568 347.844 204.216C344.004 207.864 340.452 212.136 337.188 217.032C333.924 221.928 331.092 227.16 328.692 232.728C326.388 238.296 324.564 244.056 323.22 250.008C321.876 255.96 321.204 261.816 321.204 267.576C321.204 275.064 322.452 280.632 324.948 284.28C327.444 287.928 331.092 289.752 335.892 289.752C338.196 289.752 340.692 289.272 343.38 288.312C346.068 287.448 348.804 286.2 351.588 284.568C354.372 282.936 357.108 280.968 359.796 278.664C362.484 276.36 364.98 273.816 367.284 271.032C370.644 267 373.668 262.44 376.356 257.352C379.044 252.168 381.3 246.696 383.124 240.936C385.044 235.176 386.484 229.272 387.444 223.224C388.5 217.08 389.028 211.08 389.028 205.224C389.028 202.92 388.98 201 388.884 199.464C388.788 197.832 388.644 196.488 388.452 195.432C388.356 194.28 388.26 193.368 388.164 192.696C388.068 192.024 387.972 191.448 387.876 190.968C389.028 191.544 390.276 192.264 391.62 193.128C393.06 193.896 394.356 195.096 395.508 196.728C396.756 198.264 397.764 200.328 398.532 202.92C399.396 205.512 399.828 208.872 399.828 213C399.828 219.72 399.012 226.344 397.38 232.872C395.844 239.304 393.636 245.448 390.756 251.304C387.972 257.16 384.66 262.632 380.82 267.72C376.98 272.808 372.852 277.272 368.436 281.112C362.676 286.2 356.532 290.136 350.004 292.92C343.476 295.704 337.188 297.096 331.14 297.096C322.308 297.096 315.54 294.264 310.836 288.6C306.228 283.032 303.924 274.776 303.924 263.832C303.924 257.976 304.548 251.784 305.796 245.256C307.14 238.728 308.964 232.296 311.268 225.96C313.668 219.624 316.5 213.624 319.764 207.96C323.028 202.2 326.58 197.16 330.42 192.84C334.356 188.424 338.532 184.92 342.948 182.328C347.46 179.736 352.068 178.44 356.772 178.44C358.308 178.44 359.748 178.584 361.092 178.872C362.436 179.064 363.876 179.496 365.412 180.168ZM469.475 180.168C471.299 180.936 473.171 181.944 475.091 183.192C477.011 184.344 478.787 185.544 480.419 186.792C482.051 188.04 483.395 189.288 484.451 190.536C485.603 191.688 486.227 192.648 486.323 193.416C484.691 193.032 483.059 192.792 481.427 192.696C479.795 192.504 478.307 192.408 476.963 192.408C472.643 192.408 468.323 193.464 464.003 195.576C459.779 197.688 455.747 200.568 451.907 204.216C448.067 207.864 444.515 212.136 441.251 217.032C437.987 221.928 435.155 227.16 432.755 232.728C430.451 238.296 428.627 244.056 427.283 250.008C425.939 255.96 425.267 261.816 425.267 267.576C425.267 275.064 426.515 280.632 429.011 284.28C431.507 287.928 435.155 289.752 439.955 289.752C442.259 289.752 444.755 289.272 447.443 288.312C450.131 287.448 452.867 286.2 455.651 284.568C458.435 282.936 461.171 280.968 463.859 278.664C466.547 276.36 469.043 273.816 471.347 271.032C474.707 267 477.731 262.44 480.419 257.352C483.107 252.168 485.363 246.696 487.187 240.936C489.107 235.176 490.547 229.272 491.507 223.224C492.563 217.08 493.091 211.08 493.091 205.224C493.091 202.92 493.043 201 492.947 199.464C492.851 197.832 492.707 196.488 492.515 195.432C492.419 194.28 492.323 193.368 492.227 192.696C492.131 192.024 492.035 191.448 491.939 190.968C493.091 191.544 494.339 192.264 495.683 193.128C497.123 193.896 498.419 195.096 499.571 196.728C500.819 198.264 501.827 200.328 502.595 202.92C503.459 205.512 503.891 208.872 503.891 213C503.891 219.72 503.075 226.344 501.443 232.872C499.907 239.304 497.699 245.448 494.819 251.304C492.035 257.16 488.723 262.632 484.883 267.72C481.043 272.808 476.915 277.272 472.499 281.112C466.739 286.2 460.595 290.136 454.067 292.92C447.539 295.704 441.251 297.096 435.203 297.096C426.371 297.096 419.603 294.264 414.899 288.6C410.291 283.032 407.987 274.776 407.987 263.832C407.987 257.976 408.611 251.784 409.859 245.256C411.203 238.728 413.027 232.296 415.331 225.96C417.731 219.624 420.563 213.624 423.827 207.96C427.091 202.2 430.643 197.16 434.483 192.84C438.419 188.424 442.595 184.92 447.011 182.328C451.523 179.736 456.131 178.44 460.835 178.44C462.371 178.44 463.811 178.584 465.155 178.872C466.499 179.064 467.939 179.496 469.475 180.168ZM560.721 276.792C563.121 280.92 564.321 284.904 564.321 288.744C564.321 289.608 564.225 290.376 564.033 291.048C563.937 291.816 563.793 292.584 563.601 293.352C561.969 293.16 560.241 293.016 558.417 292.92C556.689 292.824 554.865 292.776 552.945 292.776C550.641 292.776 548.289 292.824 545.889 292.92C543.585 293.112 540.993 293.352 538.113 293.64C535.233 293.928 532.017 294.312 528.465 294.792C524.913 295.272 520.785 295.896 516.081 296.664C513.873 295.896 511.665 294.36 509.457 292.056C507.249 289.848 505.185 287.16 503.265 283.992C504.225 281.88 505.425 279.288 506.865 276.216C508.305 273.048 509.985 269.256 511.905 264.84C513.825 260.328 515.937 255.096 518.241 249.144C520.641 243.096 523.185 236.136 525.873 228.264C527.601 223.08 529.089 218.52 530.337 214.584C531.585 210.648 532.689 206.856 533.649 203.208C534.705 199.464 535.713 195.576 536.673 191.544C537.633 187.512 538.689 182.856 539.841 177.576C543.681 178.344 546.993 179.784 549.777 181.896C552.657 183.912 555.393 186.84 557.985 190.68C557.217 191.928 556.209 193.944 554.961 196.728C553.713 199.512 552.225 202.92 550.497 206.952C548.865 210.888 547.041 215.4 545.025 220.488C543.009 225.48 540.897 230.856 538.689 236.616C536.577 242.28 534.513 247.608 532.497 252.6C530.481 257.592 528.657 262.104 527.025 266.136C525.489 270.168 524.241 273.624 523.281 276.504C522.321 279.384 521.841 281.544 521.841 282.984C523.377 282.888 524.769 282.792 526.017 282.696C527.265 282.6 528.561 282.456 529.905 282.264C531.249 281.976 532.689 281.688 534.225 281.4C535.857 281.016 537.777 280.536 539.985 279.96C541.905 279.48 543.681 279.096 545.313 278.808C546.945 278.424 548.529 278.136 550.065 277.944C551.697 277.656 553.329 277.464 554.961 277.368C556.689 277.176 558.609 276.984 560.721 276.792Z" fill="#FB8B24"/>
</g>
<defs>
<filter id="filter0_d_1639_9" x="10.5439" y="49.728" width="557.777" height="255.368" filterUnits="userSpaceOnUse" color-interpolation-filters="sRGB">
<feFlood flood-opacity="0" result="BackgroundImageFix"/>
<feColorMatrix in="SourceAlpha" type="matrix" values="0 0 0 0 0 0 0 0 0 0 0 0 0 0 0 0 0 0 127 0" result="hardAlpha"/>
<feOffset dy="4"/>
<feGaussianBlur stdDeviation="2"/>
<feComposite in2="hardAlpha" operator="out"/>
<feColorMatrix type="matrix" values="0 0 0 0 0 0 0 0 0 0 0 0 0 0 0 0 0 0 0.25 0"/>
<feBlend mode="normal" in2="BackgroundImageFix" result="effect1_dropShadow_1639_9"/>
<feBlend mode="normal" in="SourceGraphic" in2="effect1_dropShadow_1639_9" result="shape"/>
</filter>
</defs>
</svg>
