<svg width="193" height="288" viewBox="0 0 193 288" fill="none" xmlns="http://www.w3.org/2000/svg">
<path d="M28.896 178.056C30.616 174.272 32.68 169.399 35.088 163.436C37.496 157.473 40.0187 151.052 42.656 144.172C45.2933 137.177 47.988 130.068 50.74 122.844C53.492 115.505 56.072 108.568 58.48 102.032C60.888 95.496 62.952 89.648 64.672 84.488C66.5067 79.328 67.8253 75.372 68.628 72.62C61.404 75.6013 55.212 80.1307 50.052 86.208C44.892 92.2853 40.9933 99.9107 38.356 109.084C35.7187 108.167 33.3107 106.561 31.132 104.268C28.9533 101.86 27.52 98.8787 26.832 95.324C27.9787 90.0493 30.1 85.2333 33.196 80.876C36.4067 76.5187 40.42 72.792 45.236 69.696C50.052 66.6 55.6133 64.2493 61.92 62.644C68.2267 60.924 74.992 60.064 82.216 60.064C91.3893 60.064 99.8173 61.44 107.5 64.192C115.183 66.8293 121.776 70.556 127.28 75.372C132.784 80.188 137.084 85.9787 140.18 92.744C143.276 99.5093 144.824 107.02 144.824 115.276C144.824 126.513 142.76 137.235 138.632 147.44C134.504 157.645 128.885 166.647 121.776 174.444C114.781 182.241 106.64 188.433 97.352 193.02C88.064 197.721 78.3173 200.072 68.112 200.072C58.7093 200.072 50.6253 198.18 43.86 194.396C37.2093 190.727 32.2213 185.28 28.896 178.056ZM89.612 68.664C83.8787 68.664 78.432 69.4667 73.272 71.072C78.3173 72.9067 82.5027 74.856 85.828 76.92C89.1533 78.8693 91.4467 80.4173 92.708 81.564C91.7907 82.8253 90.4147 85.0613 88.58 88.272C86.86 91.4827 84.796 95.3813 82.388 99.968C80.0947 104.555 77.6293 109.6 74.992 115.104C72.3547 120.493 69.7747 126.055 67.252 131.788C60.716 146.351 55.9573 157.817 52.976 166.188C50.1093 174.559 48.676 180.349 48.676 183.56C50.2813 184.133 52.2307 184.535 54.524 184.764C56.8173 184.993 59.2827 185.108 61.92 185.108C71.208 185.108 79.98 182.987 88.236 178.744C96.6067 174.387 103.888 168.596 110.08 161.372C116.387 154.148 121.317 145.777 124.872 136.26C128.541 126.628 130.376 116.537 130.376 105.988C130.376 94.1773 126.707 85.004 119.368 78.468C112.029 71.932 102.111 68.664 89.612 68.664Z" fill="#8ECAE6"/>
<path d="M191.516 109.072C191.86 111.021 192.089 112.397 192.204 113.2C192.433 113.888 192.548 114.863 192.548 116.124C192.548 119.908 191.688 123.463 189.968 126.788C188.363 129.999 186.127 132.292 183.26 133.668C180.967 130.572 178.157 127.935 174.832 125.756C171.507 123.463 167.837 121.628 163.824 120.252C159.925 118.761 155.855 117.672 151.612 116.984C147.369 116.296 143.241 115.952 139.228 115.952C135.215 115.952 131.431 116.296 127.876 116.984C124.436 117.557 121.34 118.417 118.588 119.564C115.951 120.596 113.829 121.915 112.224 123.52C110.733 125.125 109.988 126.96 109.988 129.024C110.332 131.547 111.88 134.127 114.632 136.764C117.384 139.287 120.767 141.809 124.78 144.332C128.793 146.74 133.208 149.148 138.024 151.556C142.955 153.964 147.771 156.257 152.472 158.436C158.32 161.188 163.365 163.768 167.608 166.176C171.851 168.469 175.348 171.049 178.1 173.916C180.852 176.668 182.916 179.821 184.292 183.376C185.668 186.931 186.356 191.231 186.356 196.276C186.356 202.124 185.381 207.628 183.432 212.788C181.483 217.833 178.616 222.248 174.832 226.032C171.163 229.816 166.691 232.74 161.416 234.804C156.141 236.983 150.236 238.072 143.7 238.072C137.279 238.072 130.341 237.097 122.888 235.148C115.435 233.199 108.44 230.504 101.904 227.064C95.4827 223.739 90.0933 219.897 85.736 215.54C81.4933 211.068 79.372 206.367 79.372 201.436C79.372 199.143 80.0027 196.219 81.264 192.664C82.64 189.109 85.048 185.383 88.488 181.484C88.832 184.924 90.6667 188.995 93.992 193.696C97.432 198.397 102.535 202.755 109.3 206.768C115.607 210.437 122.085 213.132 128.736 214.852C135.501 216.457 141.808 217.26 147.656 217.26C154.077 217.26 159.295 216.457 163.308 214.852C167.321 213.247 170.475 211.355 172.768 209.176C175.061 206.883 176.667 204.589 177.584 202.296C178.501 200.003 179.017 198.168 179.132 196.792C179.017 194.499 177.928 192.32 175.864 190.256C173.915 188.077 171.22 186.013 167.78 184.064C164.455 182 160.556 179.936 156.084 177.872C151.612 175.808 146.968 173.744 142.152 171.68C134.928 168.469 128.679 165.488 123.404 162.736C118.244 159.869 113.944 157.003 110.504 154.136C107.179 151.155 104.713 148.059 103.108 144.848C101.617 141.637 100.872 137.968 100.872 133.84C100.872 127.419 102.821 121.341 106.72 115.608C110.619 109.875 116.237 105.517 123.576 102.536C127.245 100.931 131.144 99.784 135.272 99.096C139.515 98.408 143.643 98.064 147.656 98.064C155.224 98.064 162.62 99.096 169.844 101.16C177.068 103.224 184.292 105.861 191.516 109.072Z" fill="#FB8B24"/>
</svg>
